<svg version="1" xmlns="http://www.w3.org/2000/svg" width="272" height="272" viewBox="0 0 204.000000 204.000000"><path d="M161.9 8.4c-.2.2-6 .7-12.9 1-27.4 1.4-32.1 2.1-46.6 7C67.2 28.3 34.9 54.3 15.9 86 12.2 92.1 8 100.8 8 102.4c0 .5 14.3 5.6 66.7 23.9 1.8.6 3.4.9 3.7.6.2-.2.7-4.2 1-8.9.6-8 .8-9.9 2.1-17.5 2.8-16.7 9.1-33.1 17.5-45.6 11.4-16.9 33.7-33.9 56.7-43 4.3-1.7 8-3.3 8.2-3.5.5-.5-1.4-.5-2 0z"/><path d="M158.5 15.2c-3.3 2.8-8.9 7.6-12.5 10.8-3.6 3.1-13.6 11.9-22.2 19.4L108 59.2l5.3 3.6c23.5 16.1 39.1 33.2 48.5 53.2 7.2 15.5 10.2 39.8 7.8 62.8-1.7 15.5-1.7 14.9-.5 11.9.6-1.5 1.4-2.7 1.8-2.7 1.2 0 12.7-24.8 15.5-33.5 8.4-25.8 10.4-56.2 5.5-80.5-4.3-21.2-12.4-41.4-23.1-57.3l-4.4-6.6-5.9 5.1z"/><path d="M6.5 105.5c1.1 3.6 7.2 13.8 12.2 20.6 16.3 22.3 35.2 38.6 57.8 49.8 26.1 12.9 46.9 17.9 74.4 17.8 12.7 0 15.2-.3 14.6-2-.5-1.4-1.4-5.9-2-10.1-.2-1.5-.6-3.5-.9-4.5-.3-.9-.8-3.6-1.1-6.1-.4-2.4-.8-4.7-1-5-.2-.4-.7-2.9-1.1-5.6-.3-2.7-.8-5.2-1-5.5-.2-.4-.6-2.4-.9-4.5-.4-2.2-.8-4.7-1.1-5.6-.3-1-.7-3-1-4.5-1.4-8.8-3.7-18.9-4.3-19.6-.4-.4-2.6.2-4.9 1.3-11.1 5.4-29.4 11.9-37.7 13.5-26.1 4.9-50.1 1.3-72.5-10.8-9.5-5.2-26.7-17-29.3-20.2-.5-.6-.6-.1-.2 1z"/></svg>