<?xml version="1.0" standalone="no"?>
<!DOCTYPE svg PUBLIC "-//W3C//DTD SVG 20010904//EN"
 "http://www.w3.org/TR/2001/REC-SVG-20010904/DTD/svg10.dtd">
<svg version="1.0" xmlns="http://www.w3.org/2000/svg"
 width="204.000000pt" height="204.000000pt" viewBox="0 0 204.000000 204.000000"
 preserveAspectRatio="xMidYMid meet">
<metadata>
Created by potrace 1.11, written by Peter Selinger 2001-2013
</metadata>
<g transform="translate(0.000000,204.000000) scale(0.100000,-0.100000)"
fill="#000000" stroke="none">
<path d="M1619 1956 c-2 -2 -60 -7 -129 -10 -274 -14 -321 -21 -466 -70 -352
-119 -675 -379 -865 -696 -37 -61 -79 -148 -79 -164 0 -5 143 -56 667 -239 18
-6 34 -9 37 -6 2 2 7 42 10 89 6 80 8 99 21 175 28 167 91 331 175 456 114
169 337 339 567 430 43 17 80 33 82 35 5 5 -14 5 -20 0z"/>
<path d="M1585 1888 c-33 -28 -89 -76 -125 -108 -36 -31 -136 -119 -222 -194
l-158 -138 53 -36 c235 -161 391 -332 485 -532 72 -155 102 -398 78 -628 -17
-155 -17 -149 -5 -119 6 15 14 27 18 27 12 0 127 248 155 335 84 258 104 562
55 805 -43 212 -124 414 -231 573 l-44 66 -59 -51z"/>
<path d="M65 985 c11 -36 72 -138 122 -206 163 -223 352 -386 578 -498 261
-129 469 -179 744 -178 127 0 152 3 146 20 -5 14 -14 59 -20 101 -2 15 -6 35
-9 45 -3 9 -8 36 -11 61 -4 24 -8 47 -10 50 -2 4 -7 29 -11 56 -3 27 -8 52
-10 55 -2 4 -6 24 -9 45 -4 22 -8 47 -11 56 -3 10 -7 30 -10 45 -14 88 -37
189 -43 196 -4 4 -26 -2 -49 -13 -111 -54 -294 -119 -377 -135 -261 -49 -501
-13 -725 108 -95 52 -267 170 -293 202 -5 6 -6 1 -2 -10z"/>
</g>
</svg>
